<svg width="479" height="155" viewBox="0 0 479 155" fill="none" xmlns="http://www.w3.org/2000/svg">
<path d="M85.5905 101.9C85.1505 101.9 84.7705 101.76 84.4506 101.48C84.1305 101.24 83.8305 100.92 83.5505 100.52L81.0905 97.16C79.0105 98.12 76.5105 98.6 73.5905 98.6C68.3905 98.6 64.3505 97.24 61.4705 94.52C58.6305 91.76 57.1305 87.62 56.9705 82.1C56.9305 80.9 56.9105 79.2 56.9105 77C56.9105 74.8 56.9305 73.12 56.9705 71.96C57.1305 66.56 58.6905 62.46 61.6505 59.66C64.6105 56.82 68.5905 55.4 73.5905 55.4C78.6305 55.4 82.6105 56.82 85.5305 59.66C88.4905 62.46 90.0505 66.56 90.2105 71.96C90.2905 74.28 90.3305 75.96 90.3305 77C90.3305 78 90.2905 79.7 90.2105 82.1C90.0505 87.58 88.6105 91.68 85.8905 94.4L89.8505 100.04C89.9705 100.28 90.0305 100.5 90.0305 100.7V100.82C90.0305 101.1 89.9105 101.34 89.6705 101.54C89.4305 101.78 89.1505 101.9 88.8305 101.9H85.5905ZM73.5905 93.5C76.7505 93.5 79.2705 92.54 81.1505 90.62C83.0705 88.7 84.1105 85.76 84.2705 81.8C84.3505 79.4 84.3905 77.8 84.3905 77C84.3905 76.12 84.3505 74.52 84.2705 72.2C84.1105 68.24 83.0705 65.3 81.1505 63.38C79.2705 61.46 76.7505 60.5 73.5905 60.5C70.4305 60.5 67.9105 61.46 66.0305 63.38C64.1505 65.3 63.1305 68.24 62.9705 72.2C62.9305 73.36 62.9105 74.96 62.9105 77C62.9105 79 62.9305 80.6 62.9705 81.8C63.1305 85.76 64.1505 88.7 66.0305 90.62C67.9105 92.54 70.4305 93.5 73.5905 93.5ZM109.996 98.6C106.196 98.6 103.256 97.38 101.176 94.94C99.096 92.46 98.056 89.18 98.056 85.1V68.18C98.056 67.78 98.176 67.46 98.416 67.22C98.696 66.94 99.036 66.8 99.436 66.8H102.436C102.836 66.8 103.156 66.94 103.396 67.22C103.676 67.46 103.816 67.78 103.816 68.18V84.8C103.816 90.76 106.416 93.74 111.616 93.74C114.136 93.74 116.136 92.96 117.616 91.4C119.096 89.8 119.836 87.6 119.836 84.8V68.18C119.836 67.78 119.956 67.46 120.196 67.22C120.476 66.94 120.816 66.8 121.216 66.8H124.216C124.616 66.8 124.936 66.94 125.176 67.22C125.416 67.46 125.536 67.78 125.536 68.18V96.62C125.536 97.02 125.416 97.36 125.176 97.64C124.936 97.88 124.616 98 124.216 98H121.396C120.996 98 120.656 97.88 120.376 97.64C120.136 97.36 120.016 97.02 120.016 96.62V93.98C118.896 95.5 117.536 96.66 115.936 97.46C114.336 98.22 112.356 98.6 109.996 98.6ZM135.35 60.98C134.95 60.98 134.61 60.86 134.33 60.62C134.09 60.34 133.97 60 133.97 59.6V56.36C133.97 55.96 134.09 55.62 134.33 55.34C134.61 55.06 134.95 54.92 135.35 54.92H139.13C139.53 54.92 139.87 55.06 140.15 55.34C140.43 55.62 140.57 55.96 140.57 56.36V59.6C140.57 60 140.43 60.34 140.15 60.62C139.87 60.86 139.53 60.98 139.13 60.98H135.35ZM135.83 98C135.43 98 135.09 97.88 134.81 97.64C134.57 97.36 134.45 97.02 134.45 96.62V68.18C134.45 67.78 134.57 67.46 134.81 67.22C135.09 66.94 135.43 66.8 135.83 66.8H138.71C139.11 66.8 139.43 66.94 139.67 67.22C139.95 67.46 140.09 67.78 140.09 68.18V96.62C140.09 97.02 139.95 97.36 139.67 97.64C139.43 97.88 139.11 98 138.71 98H135.83ZM161.581 98.6C157.301 98.6 153.941 97.4 151.501 95C149.101 92.56 147.821 89.16 147.661 84.8L147.601 82.4L147.661 80C147.821 75.64 149.101 72.26 151.501 69.86C153.941 67.42 157.301 66.2 161.581 66.2C164.461 66.2 166.901 66.72 168.901 67.76C170.901 68.8 172.381 70.08 173.341 71.6C174.341 73.12 174.881 74.64 174.961 76.16C175.001 76.56 174.881 76.88 174.601 77.12C174.321 77.36 173.981 77.48 173.581 77.48H170.701C170.301 77.48 170.001 77.4 169.801 77.24C169.601 77.08 169.401 76.76 169.201 76.28C168.521 74.36 167.561 73 166.321 72.2C165.081 71.36 163.521 70.94 161.641 70.94C159.161 70.94 157.181 71.72 155.701 73.28C154.261 74.8 153.481 77.14 153.361 80.3L153.301 82.46L153.361 84.5C153.481 87.7 154.261 90.06 155.701 91.58C157.141 93.1 159.121 93.86 161.641 93.86C163.521 93.86 165.081 93.46 166.321 92.66C167.561 91.82 168.521 90.44 169.201 88.52C169.401 88.04 169.601 87.72 169.801 87.56C170.001 87.36 170.301 87.26 170.701 87.26H173.581C173.981 87.26 174.321 87.4 174.601 87.68C174.881 87.92 175.001 88.24 174.961 88.64C174.881 90.12 174.341 91.64 173.341 93.2C172.381 94.72 170.901 96 168.901 97.04C166.941 98.08 164.501 98.6 161.581 98.6ZM183.526 98C183.126 98 182.786 97.88 182.506 97.64C182.266 97.36 182.146 97.02 182.146 96.62V56.78C182.146 56.38 182.266 56.06 182.506 55.82C182.786 55.54 183.126 55.4 183.526 55.4H186.346C186.746 55.4 187.066 55.54 187.306 55.82C187.586 56.06 187.726 56.38 187.726 56.78V77.66L199.546 67.82C199.666 67.74 199.866 67.58 200.146 67.34C200.426 67.14 200.686 67 200.926 66.92C201.206 66.84 201.546 66.8 201.946 66.8H205.126C205.486 66.8 205.786 66.92 206.026 67.16C206.266 67.4 206.386 67.7 206.386 68.06C206.386 68.5 206.146 68.88 205.666 69.2L191.806 80.72L207.166 95.66C207.646 96.06 207.886 96.42 207.886 96.74C207.886 97.1 207.766 97.4 207.526 97.64C207.286 97.88 206.986 98 206.626 98H203.506C202.906 98 202.466 97.94 202.186 97.82C201.946 97.7 201.586 97.42 201.106 96.98L187.726 84.2V96.62C187.726 97.02 187.586 97.36 187.306 97.64C187.066 97.88 186.746 98 186.346 98H183.526ZM227.304 98.6C223.984 98.6 221.104 98.08 218.664 97.04C216.264 96 214.424 94.64 213.144 92.96C211.864 91.24 211.184 89.4 211.104 87.44C211.104 87.12 211.224 86.84 211.464 86.6C211.744 86.32 212.064 86.18 212.424 86.18H215.484C216.244 86.18 216.764 86.58 217.044 87.38C217.404 89.06 218.424 90.5 220.104 91.7C221.824 92.9 224.224 93.5 227.304 93.5C230.624 93.5 233.124 92.92 234.804 91.76C236.484 90.56 237.324 88.9 237.324 86.78C237.324 85.42 236.904 84.32 236.064 83.48C235.264 82.64 234.064 81.9 232.464 81.26C230.864 80.62 228.464 79.82 225.264 78.86C222.144 77.98 219.664 77.04 217.824 76.04C215.984 75.04 214.604 73.8 213.684 72.32C212.764 70.84 212.304 68.98 212.304 66.74C212.304 64.58 212.884 62.64 214.044 60.92C215.244 59.2 216.944 57.86 219.144 56.9C221.344 55.9 223.964 55.4 227.004 55.4C230.124 55.4 232.804 55.96 235.044 57.08C237.284 58.16 238.984 59.54 240.144 61.22C241.304 62.9 241.924 64.58 242.004 66.26C242.004 66.58 241.884 66.86 241.644 67.1C241.444 67.34 241.144 67.46 240.744 67.46H237.564C236.724 67.46 236.204 67.08 236.004 66.32C235.764 64.64 234.824 63.26 233.184 62.18C231.544 61.06 229.484 60.5 227.004 60.5C224.284 60.5 222.144 61.02 220.584 62.06C219.024 63.1 218.244 64.64 218.244 66.68C218.244 68.04 218.604 69.16 219.324 70.04C220.084 70.92 221.224 71.7 222.744 72.38C224.264 73.02 226.484 73.76 229.404 74.6C232.804 75.52 235.484 76.48 237.444 77.48C239.404 78.44 240.864 79.66 241.824 81.14C242.784 82.58 243.264 84.42 243.264 86.66C243.264 90.38 241.824 93.3 238.944 95.42C236.064 97.54 232.184 98.6 227.304 98.6ZM251.788 109.4C251.388 109.4 251.048 109.26 250.768 108.98C250.528 108.74 250.408 108.42 250.408 108.02V68.18C250.408 67.78 250.528 67.46 250.768 67.22C251.048 66.94 251.388 66.8 251.788 66.8H254.548C254.948 66.8 255.268 66.94 255.508 67.22C255.788 67.46 255.928 67.78 255.928 68.18V70.82C258.168 67.74 261.448 66.2 265.768 66.2C269.968 66.2 273.108 67.52 275.188 70.16C277.308 72.8 278.448 76.2 278.608 80.36C278.648 80.8 278.668 81.48 278.668 82.4C278.668 83.32 278.648 84 278.608 84.44C278.448 88.56 277.308 91.96 275.188 94.64C273.068 97.28 269.928 98.6 265.768 98.6C261.608 98.6 258.368 97.1 256.048 94.1V108.02C256.048 108.42 255.928 108.74 255.688 108.98C255.448 109.26 255.128 109.4 254.728 109.4H251.788ZM264.508 93.74C267.348 93.74 269.408 92.86 270.688 91.1C272.008 89.34 272.728 87.02 272.848 84.14C272.888 83.74 272.908 83.16 272.908 82.4C272.908 74.84 270.108 71.06 264.508 71.06C261.748 71.06 259.668 71.98 258.268 73.82C256.908 75.62 256.168 77.78 256.048 80.3L255.988 82.58L256.048 84.92C256.128 87.28 256.888 89.34 258.328 91.1C259.768 92.86 261.828 93.74 264.508 93.74ZM298.57 98.6C294.45 98.6 291.15 97.34 288.67 94.82C286.23 92.26 284.89 88.78 284.65 84.38L284.59 82.34L284.65 80.36C284.93 76.04 286.29 72.6 288.73 70.04C291.21 67.48 294.47 66.2 298.51 66.2C302.95 66.2 306.39 67.62 308.83 70.46C311.27 73.26 312.49 77.06 312.49 81.86V82.88C312.49 83.28 312.35 83.62 312.07 83.9C311.83 84.14 311.51 84.26 311.11 84.26H290.35V84.8C290.47 87.4 291.25 89.62 292.69 91.46C294.17 93.26 296.11 94.16 298.51 94.16C300.35 94.16 301.85 93.8 303.01 93.08C304.21 92.32 305.09 91.54 305.65 90.74C306.01 90.26 306.27 89.98 306.43 89.9C306.63 89.78 306.97 89.72 307.45 89.72H310.39C310.75 89.72 311.05 89.82 311.29 90.02C311.53 90.22 311.65 90.5 311.65 90.86C311.65 91.74 311.09 92.8 309.97 94.04C308.89 95.28 307.35 96.36 305.35 97.28C303.39 98.16 301.13 98.6 298.57 98.6ZM306.79 80.12V79.94C306.79 77.18 306.03 74.94 304.51 73.22C303.03 71.46 301.03 70.58 298.51 70.58C295.99 70.58 293.99 71.46 292.51 73.22C291.07 74.94 290.35 77.18 290.35 79.94V80.12H306.79ZM332.265 98.6C327.985 98.6 324.625 97.4 322.185 95C319.785 92.56 318.505 89.16 318.345 84.8L318.285 82.4L318.345 80C318.505 75.64 319.785 72.26 322.185 69.86C324.625 67.42 327.985 66.2 332.265 66.2C335.145 66.2 337.585 66.72 339.585 67.76C341.585 68.8 343.065 70.08 344.025 71.6C345.025 73.12 345.565 74.64 345.645 76.16C345.685 76.56 345.565 76.88 345.285 77.12C345.005 77.36 344.665 77.48 344.265 77.48H341.385C340.985 77.48 340.685 77.4 340.485 77.24C340.285 77.08 340.085 76.76 339.885 76.28C339.205 74.36 338.245 73 337.005 72.2C335.765 71.36 334.205 70.94 332.325 70.94C329.845 70.94 327.865 71.72 326.385 73.28C324.945 74.8 324.165 77.14 324.045 80.3L323.985 82.46L324.045 84.5C324.165 87.7 324.945 90.06 326.385 91.58C327.825 93.1 329.805 93.86 332.325 93.86C334.205 93.86 335.765 93.46 337.005 92.66C338.245 91.82 339.205 90.44 339.885 88.52C340.085 88.04 340.285 87.72 340.485 87.56C340.685 87.36 340.985 87.26 341.385 87.26H344.265C344.665 87.26 345.005 87.4 345.285 87.68C345.565 87.92 345.685 88.24 345.645 88.64C345.565 90.12 345.025 91.64 344.025 93.2C343.065 94.72 341.585 96 339.585 97.04C337.625 98.08 335.185 98.6 332.265 98.6Z" fill="#535353"/>
<path d="M354.93 98C354.53 98 354.19 97.88 353.91 97.64C353.67 97.36 353.55 97.02 353.55 96.62V57.44C353.55 57 353.67 56.66 353.91 56.42C354.19 56.14 354.53 56 354.93 56H370.17C374.69 56 378.25 57.1 380.85 59.3C383.45 61.5 384.75 64.68 384.75 68.84C384.75 73 383.45 76.18 380.85 78.38C378.29 80.54 374.73 81.62 370.17 81.62H359.55V96.62C359.55 97.02 359.41 97.36 359.13 97.64C358.85 97.88 358.51 98 358.11 98H354.93ZM369.87 76.58C372.79 76.58 374.99 75.92 376.47 74.6C377.99 73.28 378.75 71.36 378.75 68.84C378.75 66.32 378.01 64.4 376.53 63.08C375.05 61.72 372.83 61.04 369.87 61.04H359.49V76.58H369.87ZM393.426 98C393.026 98 392.686 97.88 392.406 97.64C392.166 97.36 392.046 97.02 392.046 96.62V57.44C392.046 57 392.166 56.66 392.406 56.42C392.686 56.14 393.026 56 393.426 56H408.066C412.666 56 416.266 57.08 418.866 59.24C421.466 61.4 422.766 64.52 422.766 68.6C422.766 71.64 422.006 74.14 420.486 76.1C419.006 78.06 416.906 79.42 414.186 80.18L423.426 96.14C423.546 96.38 423.606 96.6 423.606 96.8C423.606 97.12 423.466 97.4 423.186 97.64C422.946 97.88 422.666 98 422.346 98H419.466C418.866 98 418.386 97.86 418.026 97.58C417.706 97.3 417.406 96.9 417.126 96.38L408.426 81.14H397.926V96.62C397.926 97.02 397.786 97.36 397.506 97.64C397.226 97.88 396.886 98 396.486 98H393.426ZM407.826 76.04C413.786 76.04 416.766 73.54 416.766 68.54C416.766 63.54 413.786 61.04 407.826 61.04H397.926V76.04H407.826ZM446.424 98.6C441.184 98.6 437.124 97.24 434.244 94.52C431.404 91.76 429.904 87.62 429.744 82.1C429.704 80.9 429.684 79.2 429.684 77C429.684 74.8 429.704 73.12 429.744 71.96C429.904 66.56 431.464 62.46 434.424 59.66C437.384 56.82 441.384 55.4 446.424 55.4C451.424 55.4 455.404 56.82 458.364 59.66C461.324 62.46 462.884 66.56 463.044 71.96C463.124 74.28 463.164 75.96 463.164 77C463.164 78 463.124 79.7 463.044 82.1C462.884 87.62 461.364 91.76 458.484 94.52C455.644 97.24 451.624 98.6 446.424 98.6ZM446.424 93.5C449.584 93.5 452.104 92.54 453.984 90.62C455.864 88.7 456.884 85.76 457.044 81.8C457.124 79.4 457.164 77.8 457.164 77C457.164 76.12 457.124 74.52 457.044 72.2C456.884 68.24 455.844 65.3 453.924 63.38C452.044 61.46 449.544 60.5 446.424 60.5C443.264 60.5 440.724 61.46 438.804 63.38C436.924 65.3 435.904 68.24 435.744 72.2C435.704 73.36 435.684 74.96 435.684 77C435.684 79 435.704 80.6 435.744 81.8C435.904 85.76 436.924 88.7 438.804 90.62C440.724 92.54 443.264 93.5 446.424 93.5Z" fill="#1A8FDD"/>
<path d="M23.5 54C10.528 54 0 64.528 0 77.5C0 90.472 10.528 101 23.5 101C36.472 101 47 90.472 47 77.5C47 64.528 36.472 54 23.5 54ZM18.8 89.25L7.05 77.5L10.3635 74.1865L18.8 82.5995L36.6365 64.763L39.95 68.1L18.8 89.25Z" fill="#67BF3E"/>
</svg>
